<svg class="diagram-root" style="background: #f5f6f6" xmlns="http://www.w3.org/2000/svg" xmlns:xlink="http://www.w3.org/1999/xlink"><style>.diagram-root { font-family: "Helvetica Neue", sans-serif; font-size: 12px; } .t { overflow: visible; } .t-bg { y: 40; fill: #fff;   } .th { fill: #005aa0;   } .tht { fill: #fff; font-size: 14px;  } .tf { fill: #323c46; overflow: visible; } .tf.pk { fill: #005aa0; font-weight: bold; } .tf.fk { font-weight: bold; } .ty { fill: #adb1b5; font-weight: normal; text-anchor: end; } .r { fill: transparent; stroke: #c3c3c3; stroke-width: 1; } .l { stroke: 1; } .i { fill: #c2c7ce; stroke: #c2c7ce; } .i.ix { fill: #afb3b6; stroke: #000; } .fa { fill: transparent; overflow: visible; } .fa .bg.hover { fill: #f7f7f7; } .c { cy: 12; r: 4; stroke: #d2d2dc; fill: #d2d2dc; } .hr { fill: transparent; stroke: #323c46; stroke-opacity: 0.035; stroke-width: 13; } .dc { stroke: #fa5a3c; fill: #fa5a3c; } .x { stroke: white; stroke-width: 1; } .hl .th { fill: #1b9bff; } .hl .tht {  } .fhl .bg { fill: #e7f4ff; } .fhls .bg {  } .r.hl { stroke: #1b9bff; } .dim { opacity: 0.25; }</style><g class="drawing-wrapper" transform="translate(252.84714285714293, 107.75428571428571) scale(1,1)"><g class="rs"><path d="M 572.07 413.9 m -1, 0 a 1,1 0 1,0 2,0 a 1,1 0 1,0 -2,0 M 572.07 413.9 m -0.5, 0 a 0.5,0.5 0 1,0 1,0 a 0.5,0.5 0 1,0 -1,0  M572.07 413.9 L572.07 413.9 584.07 413.9 M578.07 419.9 L578.07 419.9 578.07 407.9 M584.07 413.9 Q 607.56 413.9, 631.04 379.74 T 678 345.57 M 690 345.57 m -1, 0 a 1,1 0 1,0 2,0 a 1,1 0 1,0 -2,0 M 690 345.57 m -0.5, 0 a 0.5,0.5 0 1,0 1,0 a 0.5,0.5 0 1,0 -1,0  M690 345.57 L690 345.57 678 345.57 M684 351.57 L684 351.57 684 339.57" id="h3367677575" class="r"></path><path d="M 670.25 -20.75 m -1, 0 a 1,1 0 1,0 2,0 a 1,1 0 1,0 -2,0 M 670.25 -20.75 m -0.5, 0 a 0.5,0.5 0 1,0 1,0 a 0.5,0.5 0 1,0 -1,0  M670.25 -20.75 L670.25 -20.75 658.25 -20.75 M 670.25 -14.75 m -1, 0 a 1,1 0 1,0 2,0 a 1,1 0 1,0 -2,0 M 670.25 -14.75 m -0.5, 0 a 0.5,0.5 0 1,0 1,0 a 0.5,0.5 0 1,0 -1,0  M670.25 -14.75 L670.25 -14.75 663.25 -20.75 670.25 -26.75 M 670.25 -26.75 m -1, 0 a 1,1 0 1,0 2,0 a 1,1 0 1,0 -2,0 M 670.25 -26.75 m -0.5, 0 a 0.5,0.5 0 1,0 1,0 a 0.5,0.5 0 1,0 -1,0  M658.25 -20.75 Q 639.7 -20.75, 621.16 -3.43 T 584.07 13.899999999999999 M 572.07 13.899999999999999 m -1, 0 a 1,1 0 1,0 2,0 a 1,1 0 1,0 -2,0 M 572.07 13.899999999999999 m -0.5, 0 a 0.5,0.5 0 1,0 1,0 a 0.5,0.5 0 1,0 -1,0  M572.07 13.899999999999999 L572.07 13.899999999999999 584.07 13.899999999999999 M578.07 19.9 L578.07 19.9 578.07 7.899999999999999" id="h851573620" class="r"></path><path d="M 279.12 56.82 m -1, 0 a 1,1 0 1,0 2,0 a 1,1 0 1,0 -2,0 M 279.12 56.82 m -0.5, 0 a 0.5,0.5 0 1,0 1,0 a 0.5,0.5 0 1,0 -1,0  M279.12 56.82 L279.12 56.82 291.12 56.82 M 279.12 62.82 m -1, 0 a 1,1 0 1,0 2,0 a 1,1 0 1,0 -2,0 M 279.12 62.82 m -0.5, 0 a 0.5,0.5 0 1,0 1,0 a 0.5,0.5 0 1,0 -1,0  M279.12 62.82 L279.12 62.82 286.12 56.82 279.12 50.82 M 279.12 50.82 m -1, 0 a 1,1 0 1,0 2,0 a 1,1 0 1,0 -2,0 M 279.12 50.82 m -0.5, 0 a 0.5,0.5 0 1,0 1,0 a 0.5,0.5 0 1,0 -1,0  M291.12 56.82 Q 308.84 56.82, 326.56 35.36 T 362 13.899999999999999 M 374 13.899999999999999 m -1, 0 a 1,1 0 1,0 2,0 a 1,1 0 1,0 -2,0 M 374 13.899999999999999 m -0.5, 0 a 0.5,0.5 0 1,0 1,0 a 0.5,0.5 0 1,0 -1,0  M374 13.899999999999999 L374 13.899999999999999 362 13.899999999999999 M368 19.9 L368 19.9 368 7.899999999999999" id="h4154426123" class="r"></path><path d="M 92.45 273.01 m -1, 0 a 1,1 0 1,0 2,0 a 1,1 0 1,0 -2,0 M 92.45 273.01 m -0.5, 0 a 0.5,0.5 0 1,0 1,0 a 0.5,0.5 0 1,0 -1,0  M92.45 273.01 L92.45 273.01 80.45 273.01 M 92.45 279.01 m -1, 0 a 1,1 0 1,0 2,0 a 1,1 0 1,0 -2,0 M 92.45 279.01 m -0.5, 0 a 0.5,0.5 0 1,0 1,0 a 0.5,0.5 0 1,0 -1,0  M92.45 279.01 L92.45 279.01 85.45 273.01 92.45 267.01 M 92.45 267.01 m -1, 0 a 1,1 0 1,0 2,0 a 1,1 0 1,0 -2,0 M 92.45 267.01 m -0.5, 0 a 0.5,0.5 0 1,0 1,0 a 0.5,0.5 0 1,0 -1,0  M80.45 273.01 C 17.906 273.01, 22.61 106.82, 72.61 106.82 M 84.61 106.82 m -1, 0 a 1,1 0 1,0 2,0 a 1,1 0 1,0 -2,0 M 84.61 106.82 m -0.5, 0 a 0.5,0.5 0 1,0 1,0 a 0.5,0.5 0 1,0 -1,0  M84.61 106.82 L84.61 106.82 72.61 106.82 M78.61 112.82 L78.61 112.82 78.61 100.82" id="h1886066409" class="r"></path><path d="M 92.45 298.01 m -1, 0 a 1,1 0 1,0 2,0 a 1,1 0 1,0 -2,0 M 92.45 298.01 m -0.5, 0 a 0.5,0.5 0 1,0 1,0 a 0.5,0.5 0 1,0 -1,0  M92.45 298.01 L92.45 298.01 80.45 298.01 M 92.45 304.01 m -1, 0 a 1,1 0 1,0 2,0 a 1,1 0 1,0 -2,0 M 92.45 304.01 m -0.5, 0 a 0.5,0.5 0 1,0 1,0 a 0.5,0.5 0 1,0 -1,0  M92.45 304.01 L92.45 304.01 85.45 298.01 92.45 292.01 M 92.45 292.01 m -1, 0 a 1,1 0 1,0 2,0 a 1,1 0 1,0 -2,0 M 92.45 292.01 m -0.5, 0 a 0.5,0.5 0 1,0 1,0 a 0.5,0.5 0 1,0 -1,0  M80.45 298.01 C 38.64330343380647 298.01, 38.55330343380648 423.43, 80.6 423.43 M 92.6 423.43 m -1, 0 a 1,1 0 1,0 2,0 a 1,1 0 1,0 -2,0 M 92.6 423.43 m -0.5, 0 a 0.5,0.5 0 1,0 1,0 a 0.5,0.5 0 1,0 -1,0  M92.6 423.43 L92.6 423.43 80.6 423.43 M86.6 429.43 L86.6 429.43 86.6 417.43" id="h1405101700" class="r"></path><path d="M 88.28 651.81 m -1, 0 a 1,1 0 1,0 2,0 a 1,1 0 1,0 -2,0 M 88.28 651.81 m -0.5, 0 a 0.5,0.5 0 1,0 1,0 a 0.5,0.5 0 1,0 -1,0  M88.28 651.81 L88.28 651.81 76.28 651.81 M 88.28 657.81 m -1, 0 a 1,1 0 1,0 2,0 a 1,1 0 1,0 -2,0 M 88.28 657.81 m -0.5, 0 a 0.5,0.5 0 1,0 1,0 a 0.5,0.5 0 1,0 -1,0  M88.28 657.81 L88.28 657.81 81.28 651.81 88.28 645.81 M 88.28 645.81 m -1, 0 a 1,1 0 1,0 2,0 a 1,1 0 1,0 -2,0 M 88.28 645.81 m -0.5, 0 a 0.5,0.5 0 1,0 1,0 a 0.5,0.5 0 1,0 -1,0  M76.28 651.81 C 26.28 651.81, 23.688000000000006 423.43, 80.6 423.43 M 92.6 423.43 m -1, 0 a 1,1 0 1,0 2,0 a 1,1 0 1,0 -2,0 M 92.6 423.43 m -0.5, 0 a 0.5,0.5 0 1,0 1,0 a 0.5,0.5 0 1,0 -1,0  M92.6 423.43 L92.6 423.43 80.6 423.43 M86.6 429.43 L86.6 429.43 86.6 417.43" id="h2307822701" class="r"></path><path d="M 244.32 676.81 m -1, 0 a 1,1 0 1,0 2,0 a 1,1 0 1,0 -2,0 M 244.32 676.81 m -0.5, 0 a 0.5,0.5 0 1,0 1,0 a 0.5,0.5 0 1,0 -1,0  M244.32 676.81 L244.32 676.81 256.32 676.81 M 244.32 682.81 m -1, 0 a 1,1 0 1,0 2,0 a 1,1 0 1,0 -2,0 M 244.32 682.81 m -0.5, 0 a 0.5,0.5 0 1,0 1,0 a 0.5,0.5 0 1,0 -1,0  M244.32 682.81 L244.32 682.81 251.32 676.81 244.32 670.81 M 244.32 670.81 m -1, 0 a 1,1 0 1,0 2,0 a 1,1 0 1,0 -2,0 M 244.32 670.81 m -0.5, 0 a 0.5,0.5 0 1,0 1,0 a 0.5,0.5 0 1,0 -1,0  M256.32 676.81 Q 285.03 676.81, 313.75 672.73 T 371.17 668.66 M 383.17 668.66 m -1, 0 a 1,1 0 1,0 2,0 a 1,1 0 1,0 -2,0 M 383.17 668.66 m -0.5, 0 a 0.5,0.5 0 1,0 1,0 a 0.5,0.5 0 1,0 -1,0  M383.17 668.66 L383.17 668.66 371.17 668.66 M377.17 674.66 L377.17 674.66 377.17 662.66" id="h3644998416" class="r"></path><path d="M 377.13 858.38 m -1, 0 a 1,1 0 1,0 2,0 a 1,1 0 1,0 -2,0 M 377.13 858.38 m -0.5, 0 a 0.5,0.5 0 1,0 1,0 a 0.5,0.5 0 1,0 -1,0  M377.13 858.38 L377.13 858.38 365.13 858.38 M 377.13 864.38 m -1, 0 a 1,1 0 1,0 2,0 a 1,1 0 1,0 -2,0 M 377.13 864.38 m -0.5, 0 a 0.5,0.5 0 1,0 1,0 a 0.5,0.5 0 1,0 -1,0  M377.13 864.38 L377.13 864.38 370.13 858.38 377.13 852.38 M 377.13 852.38 m -1, 0 a 1,1 0 1,0 2,0 a 1,1 0 1,0 -2,0 M 377.13 852.38 m -0.5, 0 a 0.5,0.5 0 1,0 1,0 a 0.5,0.5 0 1,0 -1,0  M365.13 858.38 C 315.13 858.38, 311.506 668.66, 371.17 668.66 M 383.17 668.66 m -1, 0 a 1,1 0 1,0 2,0 a 1,1 0 1,0 -2,0 M 383.17 668.66 m -0.5, 0 a 0.5,0.5 0 1,0 1,0 a 0.5,0.5 0 1,0 -1,0  M383.17 668.66 L383.17 668.66 371.17 668.66 M377.17 674.66 L377.17 674.66 377.17 662.66" id="h148643845" class="r"></path><path d="M 690 345.57 m -1, 0 a 1,1 0 1,0 2,0 a 1,1 0 1,0 -2,0 M 690 345.57 m -0.5, 0 a 0.5,0.5 0 1,0 1,0 a 0.5,0.5 0 1,0 -1,0  M690 345.57 L690 345.57 678 345.57 M684 351.57 L684 351.57 684 339.57 M678 345.57 Q 646.31 345.57, 614.61 507.12 T 551.21 668.66 M 539.21 668.66 m -1, 0 a 1,1 0 1,0 2,0 a 1,1 0 1,0 -2,0 M 539.21 668.66 m -0.5, 0 a 0.5,0.5 0 1,0 1,0 a 0.5,0.5 0 1,0 -1,0  M539.21 668.66 L539.21 668.66 551.21 668.66 M545.21 674.66 L545.21 674.66 545.21 662.66" id="h1889233575" class="r"></path><path d="M 690 520.5699999999999 m -1, 0 a 1,1 0 1,0 2,0 a 1,1 0 1,0 -2,0 M 690 520.5699999999999 m -0.5, 0 a 0.5,0.5 0 1,0 1,0 a 0.5,0.5 0 1,0 -1,0  M690 520.5699999999999 L690 520.5699999999999 678 520.5699999999999 M 690 526.5699999999999 m -1, 0 a 1,1 0 1,0 2,0 a 1,1 0 1,0 -2,0 M 690 526.5699999999999 m -0.5, 0 a 0.5,0.5 0 1,0 1,0 a 0.5,0.5 0 1,0 -1,0  M690 526.5699999999999 L690 526.5699999999999 683 520.5699999999999 690 514.5699999999999 M 690 514.5699999999999 m -1, 0 a 1,1 0 1,0 2,0 a 1,1 0 1,0 -2,0 M 690 514.5699999999999 m -0.5, 0 a 0.5,0.5 0 1,0 1,0 a 0.5,0.5 0 1,0 -1,0  M678 520.5699999999999 Q 646.31 520.5699999999999, 614.61 619.62 T 551.21 718.66 M 539.21 718.66 m -1, 0 a 1,1 0 1,0 2,0 a 1,1 0 1,0 -2,0 M 539.21 718.66 m -0.5, 0 a 0.5,0.5 0 1,0 1,0 a 0.5,0.5 0 1,0 -1,0  M539.21 718.66 L539.21 718.66 551.21 718.66 M545.21 724.66 L545.21 724.66 545.21 712.66" id="h2883354235" class="r"></path><path d="M 1041.43 377 m -1, 0 a 1,1 0 1,0 2,0 a 1,1 0 1,0 -2,0 M 1041.43 377 m -0.5, 0 a 0.5,0.5 0 1,0 1,0 a 0.5,0.5 0 1,0 -1,0  M1041.43 377 L1041.43 377 1029.43 377 M 1041.43 383 m -1, 0 a 1,1 0 1,0 2,0 a 1,1 0 1,0 -2,0 M 1041.43 383 m -0.5, 0 a 0.5,0.5 0 1,0 1,0 a 0.5,0.5 0 1,0 -1,0  M1041.43 383 L1041.43 383 1034.43 377 1041.43 371 M 1041.43 371 m -1, 0 a 1,1 0 1,0 2,0 a 1,1 0 1,0 -2,0 M 1041.43 371 m -0.5, 0 a 0.5,0.5 0 1,0 1,0 a 0.5,0.5 0 1,0 -1,0  M1029.43 377 Q 1008.44 377, 987.44 361.29 T 945.44 345.57 M 933.44 345.57 m -1, 0 a 1,1 0 1,0 2,0 a 1,1 0 1,0 -2,0 M 933.44 345.57 m -0.5, 0 a 0.5,0.5 0 1,0 1,0 a 0.5,0.5 0 1,0 -1,0  M933.44 345.57 L933.44 345.57 945.44 345.57 M939.44 351.57 L939.44 351.57 939.44 339.57" id="h2677716458" class="r"></path><path d="M 1041.43 402 m -1, 0 a 1,1 0 1,0 2,0 a 1,1 0 1,0 -2,0 M 1041.43 402 m -0.5, 0 a 0.5,0.5 0 1,0 1,0 a 0.5,0.5 0 1,0 -1,0  M1041.43 402 L1041.43 402 1029.43 402 M 1041.43 408 m -1, 0 a 1,1 0 1,0 2,0 a 1,1 0 1,0 -2,0 M 1041.43 408 m -0.5, 0 a 0.5,0.5 0 1,0 1,0 a 0.5,0.5 0 1,0 -1,0  M1041.43 408 L1041.43 408 1034.43 402 1041.43 396 M 1041.43 396 m -1, 0 a 1,1 0 1,0 2,0 a 1,1 0 1,0 -2,0 M 1041.43 396 m -0.5, 0 a 0.5,0.5 0 1,0 1,0 a 0.5,0.5 0 1,0 -1,0  M1029.43 402 C 997.0785301434329 402, 997.2465301434329 497.71, 1029.15 497.71 M 1041.15 497.71 m -1, 0 a 1,1 0 1,0 2,0 a 1,1 0 1,0 -2,0 M 1041.15 497.71 m -0.5, 0 a 0.5,0.5 0 1,0 1,0 a 0.5,0.5 0 1,0 -1,0  M1041.15 497.71 L1041.15 497.71 1029.15 497.71 M1035.15 503.71 L1035.15 503.71 1035.15 491.71" id="h3676949359" class="r"></path><path d="M 684.19 148.26 m -1, 0 a 1,1 0 1,0 2,0 a 1,1 0 1,0 -2,0 M 684.19 148.26 m -0.5, 0 a 0.5,0.5 0 1,0 1,0 a 0.5,0.5 0 1,0 -1,0  M684.19 148.26 L684.19 148.26 672.19 148.26 M 684.19 154.26 m -1, 0 a 1,1 0 1,0 2,0 a 1,1 0 1,0 -2,0 M 684.19 154.26 m -0.5, 0 a 0.5,0.5 0 1,0 1,0 a 0.5,0.5 0 1,0 -1,0  M684.19 154.26 L684.19 154.26 677.19 148.26 684.19 142.26 M 684.19 142.26 m -1, 0 a 1,1 0 1,0 2,0 a 1,1 0 1,0 -2,0 M 684.19 142.26 m -0.5, 0 a 0.5,0.5 0 1,0 1,0 a 0.5,0.5 0 1,0 -1,0  M672.19 148.26 C 622.19 148.26, 618.7040000000001 345.57, 678 345.57 M 690 345.57 m -1, 0 a 1,1 0 1,0 2,0 a 1,1 0 1,0 -2,0 M 690 345.57 m -0.5, 0 a 0.5,0.5 0 1,0 1,0 a 0.5,0.5 0 1,0 -1,0  M690 345.57 L690 345.57 678 345.57 M684 351.57 L684 351.57 684 339.57" id="h3191068708" class="r"></path><path d="M 684.19 173.26 m -1, 0 a 1,1 0 1,0 2,0 a 1,1 0 1,0 -2,0 M 684.19 173.26 m -0.5, 0 a 0.5,0.5 0 1,0 1,0 a 0.5,0.5 0 1,0 -1,0  M684.19 173.26 L684.19 173.26 672.19 173.26 M 684.19 179.26 m -1, 0 a 1,1 0 1,0 2,0 a 1,1 0 1,0 -2,0 M 684.19 179.26 m -0.5, 0 a 0.5,0.5 0 1,0 1,0 a 0.5,0.5 0 1,0 -1,0  M684.19 179.26 L684.19 179.26 677.19 173.26 684.19 167.26 M 684.19 167.26 m -1, 0 a 1,1 0 1,0 2,0 a 1,1 0 1,0 -2,0 M 684.19 167.26 m -0.5, 0 a 0.5,0.5 0 1,0 1,0 a 0.5,0.5 0 1,0 -1,0  M672.19 173.26 Q 650.16 173.26, 628.13 93.58 T 584.07 13.899999999999999 M 572.07 13.899999999999999 m -1, 0 a 1,1 0 1,0 2,0 a 1,1 0 1,0 -2,0 M 572.07 13.899999999999999 m -0.5, 0 a 0.5,0.5 0 1,0 1,0 a 0.5,0.5 0 1,0 -1,0  M572.07 13.899999999999999 L572.07 13.899999999999999 584.07 13.899999999999999 M578.07 19.9 L578.07 19.9 578.07 7.899999999999999" id="h2921030380" class="r"></path></g><g class="hrs"></g><g class="ts"><svg width="198.07" height="625" x="374" y="-43.1" id="h3923623577" class="t"><rect height="40" width="198.07" class="th"></rect><text x="13" y="25" class="tht">sites</text><rect height="585" width="198.07" class="t-bg"></rect><text x="13" y="61" class="tf fk">site_slug<tspan x="185.07" class="ty">STRING</tspan></text><text x="13" y="86" class="tf">site_url<tspan x="185.07" class="ty">STRING</tspan></text><text x="13" y="111" class="tf">post_date_gmt<tspan x="185.07" class="ty">TIMESTAMP</tspan></text><text x="13" y="136" class="tf">site_title<tspan x="185.07" class="ty">STRING</tspan></text><text x="13" y="161" class="tf">php_version<tspan x="185.07" class="ty">STRING</tspan></text><text x="13" y="186" class="tf">mysql_version<tspan x="185.07" class="ty">STRING</tspan></text><text x="13" y="211" class="tf">platform<tspan x="185.07" class="ty">STRING</tspan></text><text x="13" y="236" class="tf">amp_mode<tspan x="185.07" class="ty">STRING</tspan></text><text x="13" y="261" class="tf">amp_version<tspan x="185.07" class="ty">STRING</tspan></text><text x="13" y="286" class="tf">amp_templates<tspan x="185.07" class="ty">STRING</tspan></text><text x="13" y="311" class="tf">amp_plugins<tspan x="185.07" class="ty">STRING</tspan></text><text x="13" y="336" class="tf">amp_analytics<tspan x="185.07" class="ty">STRING</tspan></text><text x="13" y="361" class="tf">wp_content_types<tspan x="185.07" class="ty">STRING</tspan></text><text x="13" y="386" class="tf">wp_language<tspan x="185.07" class="ty">STRING</tspan></text><text x="13" y="411" class="tf">wp_https_status<tspan x="185.07" class="ty">BOOL</tspan></text><text x="13" y="436" class="tf">wp_multisite<tspan x="185.07" class="ty">STRING</tspan></text><text x="13" y="461" class="tf fk">wp_active_theme<tspan x="185.07" class="ty">STRING</tspan></text><text x="13" y="486" class="tf">wp_version<tspan x="185.07" class="ty">STRING</tspan></text><text x="13" y="511" class="tf">is_seeding_site<tspan x="185.07" class="ty">BOOL</tspan></text><text x="13" y="536" class="tf">mobile_redirect<tspan x="185.07" class="ty">BOOL</tspan></text><text x="13" y="561" class="tf">reader_theme<tspan x="185.07" class="ty">STRING</tspan></text><text x="13" y="586" class="tf">plugin_configured<tspan x="185.07" class="ty">BOOL</tspan></text><text x="13" y="611" class="tf">suppressed_plugins<tspan x="185.07" class="ty">STRING</tspan></text></svg><svg width="153.37" height="125" x="670.25" y="-77.75" id="h3473768650" class="t"><rect height="40" width="153.37" class="th"></rect><text x="13" y="25" class="tht">site_meta</text><rect height="85" width="153.37" class="t-bg"></rect><text x="13" y="61" class="tf fk">site_slug<tspan x="140.37" class="ty">STRING</tspan></text><text x="13" y="86" class="tf">meta_key<tspan x="140.37" class="ty">STRING</tspan></text><text x="13" y="111" class="tf">meta_value<tspan x="140.37" class="ty">STRING</tspan></text></svg><svg width="194.51" height="200" x="84.61" y="-0.18" id="h2444950598" class="t"><rect height="40" width="194.51" class="th"></rect><text x="13" y="25" class="tht">amp_validated_url</text><rect height="160" width="194.51" class="t-bg"></rect><text x="13" y="61" class="tf fk">site_slug<tspan x="181.51" class="ty">STRING</tspan></text><text x="13" y="86" class="tf">site_url<tspan x="181.51" class="ty">STRING</tspan></text><text x="13" y="111" class="tf fk">page_slug<tspan x="181.51" class="ty">STRING</tspan></text><text x="13" y="136" class="tf">page_url<tspan x="181.51" class="ty">STRING</tspan></text><text x="13" y="161" class="tf">post_date_gmt<tspan x="181.51" class="ty">TIMESTAMP</tspan></text><text x="13" y="186" class="tf">guid<tspan x="181.51" class="ty">STRING</tspan></text></svg><svg width="146.72" height="100" x="92.45" y="216.01" id="h2659043014" class="t"><rect height="40" width="146.72" class="th"></rect><text x="13" y="25" class="tht">errors_to_urls</text><rect height="60" width="146.72" class="t-bg"></rect><text x="13" y="61" class="tf fk">page_slug<tspan x="133.72" class="ty">STRING</tspan></text><text x="13" y="86" class="tf fk">error_slug<tspan x="133.72" class="ty">STRING</tspan></text></svg><svg width="174.06" height="225" x="92.6" y="341.43" id="h2695173078" class="t"><rect height="40" width="174.06" class="th"></rect><text x="13" y="25" class="tht">errors</text><rect height="185" width="174.06" class="t-bg"></rect><text x="13" y="61" class="tf">node_name<tspan x="161.06" class="ty">STRING</tspan></text><text x="13" y="86" class="tf fk">error_slug<tspan x="161.06" class="ty">STRING</tspan></text><text x="13" y="111" class="tf">parent_name<tspan x="161.06" class="ty">STRING</tspan></text><text x="13" y="136" class="tf">code<tspan x="161.06" class="ty">STRING</tspan></text><text x="13" y="161" class="tf">type<tspan x="161.06" class="ty">STRING</tspan></text><text x="13" y="186" class="tf">node_attributes<tspan x="161.06" class="ty">STRING</tspan></text><text x="13" y="211" class="tf">node_type<tspan x="161.06" class="ty">STRING</tspan></text></svg><svg width="156.04" height="100" x="88.28" y="594.81" id="h1636840010" class="t"><rect height="40" width="156.04" class="th"></rect><text x="13" y="25" class="tht">errors_to_sources</text><rect height="60" width="156.04" class="t-bg"></rect><text x="13" y="61" class="tf fk">error_slug<tspan x="143.04" class="ty">STRING</tspan></text><text x="13" y="86" class="tf fk">source_slug<tspan x="143.04" class="ty">STRING</tspan></text></svg><svg width="156.04" height="175" x="383.17" y="611.66" id="h178162089" class="t"><rect height="40" width="156.04" class="th"></rect><text x="13" y="25" class="tht">sources</text><rect height="135" width="156.04" class="t-bg"></rect><text x="13" y="61" class="tf fk">source_slug<tspan x="143.04" class="ty">STRING</tspan></text><text x="13" y="86" class="tf">type<tspan x="143.04" class="ty">INTEGER</tspan></text><text x="13" y="111" class="tf fk">name<tspan x="143.04" class="ty">STRING</tspan></text><text x="13" y="136" class="tf">file<tspan x="143.04" class="ty">STRING</tspan></text><text x="13" y="161" class="tf">line<tspan x="143.04" class="ty">STRING</tspan></text></svg><svg width="156.04" height="125" x="377.13" y="801.38" id="h4158598228" class="t"><rect height="40" width="156.04" class="th"></rect><text x="13" y="25" class="tht">source_meta</text><rect height="85" width="156.04" class="t-bg"></rect><text x="13" y="61" class="tf fk">source_slug<tspan x="143.04" class="ty">STRING</tspan></text><text x="13" y="86" class="tf">meta_key<tspan x="143.04" class="ty">STRING</tspan></text><text x="13" y="111" class="tf">meta_value<tspan x="143.04" class="ty">STRING</tspan></text></svg><svg width="243.44" height="850" x="690" y="238.57" id="h330925009" class="t"><rect height="40" width="243.44" class="th"></rect><text x="13" y="25" class="tht">wporg</text><rect height="810" width="243.44" class="t-bg"></rect><text x="13" y="61" class="tf">error_count<tspan x="230.44" class="ty">STRING?</tspan></text><text x="13" y="86" class="tf">compatibility_score<tspan x="230.44" class="ty">STRING?</tspan></text><text x="13" y="111" class="tf fk">slug_version<tspan x="230.44" class="ty">STRING</tspan></text><text x="13" y="136" class="tf">type<tspan x="230.44" class="ty">STRING</tspan></text><text x="13" y="161" class="tf">preview_url<tspan x="230.44" class="ty">STRING</tspan></text><text x="13" y="186" class="tf">screenshot_url<tspan x="230.44" class="ty">STRING</tspan></text><text x="13" y="211" class="tf">theme_rating<tspan x="230.44" class="ty">INTEGER</tspan></text><text x="13" y="236" class="tf">theme_num_ratings<tspan x="230.44" class="ty">INTEGER</tspan></text><text x="13" y="261" class="tf">name<tspan x="230.44" class="ty">STRING</tspan></text><text x="13" y="286" class="tf fk">slug<tspan x="230.44" class="ty">STRING</tspan></text><text x="13" y="311" class="tf">version<tspan x="230.44" class="ty">STRING</tspan></text><text x="13" y="336" class="tf">authors<tspan x="230.44" class="ty">STRING?</tspan></text><text x="13" y="361" class="tf">author_profiles<tspan x="230.44" class="ty">STRING?</tspan></text><text x="13" y="386" class="tf">requires<tspan x="230.44" class="ty">STRING?</tspan></text><text x="13" y="411" class="tf">tested<tspan x="230.44" class="ty">STRING?</tspan></text><text x="13" y="436" class="tf">requires_php<tspan x="230.44" class="ty">STRING?</tspan></text><text x="13" y="461" class="tf">rating<tspan x="230.44" class="ty">STRING?</tspan></text><text x="13" y="486" class="tf">ratings<tspan x="230.44" class="ty">STRING?</tspan></text><text x="13" y="511" class="tf">num_ratings<tspan x="230.44" class="ty">STRING?</tspan></text><text x="13" y="536" class="tf">support_threads<tspan x="230.44" class="ty">STRING?</tspan></text><text x="13" y="561" class="tf">support_threads_resolved<tspan x="230.44" class="ty">STRING?</tspan></text><text x="13" y="586" class="tf">active_installs<tspan x="230.44" class="ty">STRING?</tspan></text><text x="13" y="611" class="tf">downloaded<tspan x="230.44" class="ty">STRING?</tspan></text><text x="13" y="636" class="tf">last_updated<tspan x="230.44" class="ty">STRING?</tspan></text><text x="13" y="661" class="tf">added<tspan x="230.44" class="ty">STRING?</tspan></text><text x="13" y="686" class="tf">homepage<tspan x="230.44" class="ty">STRING?</tspan></text><text x="13" y="711" class="tf">short_description<tspan x="230.44" class="ty">STRING?</tspan></text><text x="13" y="736" class="tf">description<tspan x="230.44" class="ty">STRING?</tspan></text><text x="13" y="761" class="tf">download_link<tspan x="230.44" class="ty">STRING?</tspan></text><text x="13" y="786" class="tf">tags<tspan x="230.44" class="ty">STRING?</tspan></text><text x="13" y="811" class="tf">donate_link<tspan x="230.44" class="ty">STRING?</tspan></text><text x="13" y="836" class="tf">icons<tspan x="230.44" class="ty">STRING?</tspan></text></svg><svg width="197.41" height="100" x="1041.43" y="320" id="h779334296" class="t"><rect height="40" width="197.41" class="th"></rect><text x="13" y="25" class="tht">authors_rel</text><rect height="60" width="197.41" class="t-bg"></rect><text x="13" y="61" class="tf fk">plugin_slug_version<tspan x="184.41" class="ty">STRING</tspan></text><text x="13" y="86" class="tf fk">author_profile<tspan x="184.41" class="ty">STRING</tspan></text></svg><svg width="197.41" height="100" x="684.19" y="91.26" id="h1940909737" class="t"><rect height="40" width="197.41" class="th"></rect><text x="13" y="25" class="tht">sites_to_plugins</text><rect height="60" width="197.41" class="t-bg"></rect><text x="13" y="61" class="tf fk">plugin_slug_version<tspan x="184.41" class="ty">STRING</tspan></text><text x="13" y="86" class="tf fk">site_slug<tspan x="184.41" class="ty">STRING</tspan></text></svg><svg width="173.38" height="175" x="1041.15" y="440.71" id="h4247536719" class="t"><rect height="40" width="173.38" class="th"></rect><text x="13" y="25" class="tht">authors</text><rect height="135" width="173.38" class="t-bg"></rect><text x="13" y="61" class="tf fk">profile<tspan x="160.38" class="ty">STRING</tspan></text><text x="13" y="86" class="tf">user_nicename<tspan x="160.38" class="ty">STRING</tspan></text><text x="13" y="111" class="tf">avatar<tspan x="160.38" class="ty">STRING</tspan></text><text x="13" y="136" class="tf">display_name<tspan x="160.38" class="ty">STRING</tspan></text><text x="13" y="161" class="tf">status<tspan x="160.38" class="ty">STRING?</tspan></text></svg><svg width="189.4" height="225" x="-230.85" y="393.4" id="h1399926098" class="t"><rect height="40" width="189.4" class="th"></rect><text x="13" y="25" class="tht">to_process</text><rect height="185" width="189.4" class="t-bg"></rect><text x="13" y="61" class="tf">data<tspan x="176.4" class="ty">STRING</tspan></text><text x="13" y="86" class="tf">post_date_gmt<tspan x="176.4" class="ty">STRING</tspan></text><text x="13" y="111" class="tf">site_url<tspan x="176.4" class="ty">STRING</tspan></text><text x="13" y="136" class="tf">page_url<tspan x="176.4" class="ty">STRING</tspan></text><text x="13" y="161" class="tf">amp_validated_url<tspan x="176.4" class="ty">STRING</tspan></text><text x="13" y="186" class="tf">amp_options<tspan x="176.4" class="ty">STRING</tspan></text><text x="13" y="211" class="tf">site_settings<tspan x="176.4" class="ty">STRING</tspan></text></svg></g></g></svg>